<svg
    width="528"
    height="550"
    viewBox="0 0 528 550"
    fill="none"
    xmlns="http://www.w3.org/2000/svg"
  >
    <path
      d="M485.549 194.432C512.937 184.62 521.672 151.589 521.672 151.589C521.672 151.589 480.813 146.059 461.853 156.084C442.893 166.114 426.8 194.432 426.8 194.432C426.8 194.432 458.166 204.25 485.549 194.432Z"
      fill="black"
    />
    <path
      d="M488.897 122.016C499.729 106.515 500.27 94.0196 500.27 94.0196C500.27 94.0196 475.353 86.8637 455.858 100.903C436.362 114.931 446.615 150.242 446.615 150.242C446.615 150.242 478.064 137.522 488.897 122.016Z"
      fill="black"
    />
    <path
      d="M378.584 449.045C378.584 449.045 389.054 404.266 378.584 375.947C368.114 347.629 325.988 325.927 325.988 325.927C325.988 325.927 303.603 360.386 319.272 401.124C334.941 441.856 378.584 449.045 378.584 449.045Z"
      fill="black"
    />
    <path
      d="M401.296 395.52C401.296 395.52 396.03 419.202 397.079 434.136C398.127 449.07 406.556 466.731 406.556 466.731C406.556 466.731 429.733 450.843 429.733 431.164C429.733 411.479 401.296 395.52 401.296 395.52Z"
      fill="black"
    />
    <path
      d="M382.261 499.974C366.536 486.807 343.264 484.004 331.205 483.48C317.393 450.973 314.688 412.663 314.666 412.248L309.411 413.786C308.641 413.988 307.314 414.353 305.562 414.915L305.512 414.932C296.944 417.691 278.559 425.098 267.531 440.425C252.783 460.916 257.161 491.809 257.161 491.809C257.161 491.809 286.926 493.931 301.234 473.085C306.287 465.727 308.881 456.149 310.125 446.833C313.215 461.653 318.275 479.537 326.497 495.796L326.514 495.785C329.559 503.285 335.489 513.468 347.052 524.256C370.223 545.882 389.624 550 389.624 550C389.624 550 404.3 518.436 382.261 499.974Z"
      fill="black"
    />
    <path
      d="M82.1566 347.112C108.491 331.148 111.648 303.348 111.648 303.348C111.648 303.348 82.1566 290.983 57.4067 303.348C32.6512 315.707 19.487 347.112 19.487 347.112C19.487 347.112 55.8225 363.072 82.1566 347.112Z"
      fill="black"
    />
    <path
      d="M27.9462 285.828C44.2397 284.802 54.7711 271.27 54.7711 271.27C54.7711 271.27 43.1855 255.96 27.3828 256.478C11.5857 256.991 0 270.774 0 270.774C0 270.774 11.6526 286.864 27.9462 285.828Z"
      fill="black"
    />
    <path
      d="M456.715 233.452C385.115 193.364 329.351 220.711 297.879 246.422C300.083 242.577 302.286 238.454 304.517 234.003C310.636 221.824 315.417 209.77 318.892 197.792C326.261 202.145 341.913 205.799 372.19 192.649C419.587 172.07 418.896 114.877 418.896 114.877C418.896 114.877 370.087 124.662 346.916 146.157C337.166 155.211 329.658 164.871 324.225 173.03C326.528 156.52 326.294 140.098 323.538 123.637C335.793 119.541 360.7 106.499 361.771 67.9106C363.199 16.6299 303.692 8.54122 303.692 8.54122C303.692 8.54122 294.795 43.5031 299.943 69.7216C302.258 81.4919 305.895 93.9056 309.208 104.012C321.898 145.748 317.581 186.933 296.011 229.913C286.455 248.953 277.893 261.618 267.317 270.454L267.239 0C267.239 0 136.394 9.82866 136.394 137.856C136.394 249.177 235.36 271.135 261.198 274.975C246.505 284.607 227.557 288.693 197.909 292.582C168.875 296.383 141.297 288.595 121.305 280.097C127.134 272.723 139.836 254.866 142.48 236.092C145.938 211.548 130.074 188.891 130.074 188.891C130.074 188.891 108.481 190.309 101.174 226.182C96.4941 249.16 104.861 266.27 111.477 275.608C98.413 269.194 90.3861 263.489 90.1853 263.341L89.7949 263.865C91.7193 253.071 92.0428 232.787 77.4617 206.443C55.2944 166.376 22.6404 154.535 22.6404 154.535C22.6404 154.535 19.4832 199.194 32.1232 224.753C43.4132 247.589 78.5885 267.749 85.9627 271.785C94.0063 277.294 133.984 302.868 182.173 302.868C187.74 302.868 193.419 302.53 199.17 301.772C214.766 299.732 227.69 297.534 238.757 294.496L24.4923 416.813C24.4923 416.813 99.1102 522.369 212.206 457.84C314.853 399.283 277.14 298.707 269.297 280.632C270.469 279.781 271.623 278.908 272.756 277.986L514.058 412.989C514.058 412.978 570.346 297.065 456.715 233.452ZM257.109 243.265C257.109 243.265 248.128 257.249 239.337 257.811C230.552 258.367 219.502 254.413 218.777 243.63C218.051 232.847 225.136 223.896 231.232 220.204C237.335 216.522 257.104 204.408 257.104 204.408V243.265H257.109ZM220.227 217.515C206.828 225.604 187.991 219.986 182.279 205.238C176.567 190.489 184.611 175.687 201.211 172.501C217.812 169.321 257.053 161.805 257.053 161.805L257.115 195.403C257.109 195.403 233.625 209.421 220.227 217.515ZM257.109 152.582H256.328C256.328 152.582 210.945 161.331 194.997 164.407C179.05 167.483 159.777 160.655 159.777 138.03C159.777 115.395 175.535 107.639 194.066 111.288C212.596 114.937 257.109 123.958 257.109 123.958V152.582ZM257.048 114.774C257.048 114.774 217.806 107.257 201.211 104.078C184.605 100.892 176.567 86.0843 182.274 71.3415C187.986 56.5933 206.823 50.9754 220.221 59.0695C233.62 67.1527 257.104 81.1754 257.104 81.1754L257.048 114.774ZM257.109 72.1704C257.109 72.1704 237.34 60.0511 231.238 56.375C225.136 52.6825 218.057 43.7322 218.782 32.9491C219.507 22.1661 230.552 18.217 239.343 18.7679C248.134 19.3297 257.115 33.309 257.115 33.309V72.1704H257.109ZM94.9211 420.358C94.7482 427.367 90.4196 437.861 80.5353 442.699C70.6509 447.537 61.5865 440.206 57.6428 432.51C53.6936 424.809 61.5029 410.17 61.5029 410.17L95.8025 390.54C95.808 390.545 95.094 413.349 94.9211 420.358ZM132.863 454.12C116.96 456.743 102.491 443.691 102.864 428.294C103.238 412.897 103.751 386.002 103.751 386.002L133.443 369.077C133.443 369.077 146.624 405.997 152.197 421.607C157.775 437.223 148.766 451.485 132.863 454.12ZM203.091 439.432C183.11 450.864 168.306 441.477 162.17 423.996C156.034 406.51 141.515 364.387 141.515 364.387L166.778 349.933L167.174 350.599C167.174 350.599 197.82 384.475 208.586 396.387C219.357 408.288 223.066 428.005 203.091 439.432ZM251.057 386.493C240.922 398.765 223.791 399.452 212.602 387.054C201.412 374.652 174.955 345.335 174.955 345.335L204.586 328.312C204.586 328.312 228.817 341.053 242.729 348.275C256.635 355.496 261.192 374.232 251.057 386.493ZM266.508 336.297C257.355 342.357 245.875 340.901 239.544 337.612C233.213 334.323 212.529 323.758 212.529 323.758L246.829 304.134C246.829 304.134 263.708 304.652 268.639 311.786C273.57 318.926 275.662 330.243 266.508 336.297ZM305.142 281.913C305.142 281.913 297.182 267.35 301.053 259.611C304.913 251.871 313.905 244.459 323.84 249.193C333.774 253.927 338.209 264.383 338.454 271.387C338.7 278.395 339.648 301.194 339.648 301.194L305.142 281.913ZM347.641 305.655C347.641 305.655 346.849 278.766 346.314 263.374C345.778 247.988 360.114 234.778 376.045 237.248C391.976 239.719 401.135 253.889 395.719 269.565C390.308 285.235 377.512 322.28 377.512 322.28L347.641 305.655ZM385.667 326.911L386.058 326.245C386.058 326.245 400.806 283.38 405.988 268.31C411.17 253.24 426.794 240.265 446.886 251.495C466.984 262.725 466.053 279.955 453.619 293.874C441.186 307.799 411.086 341.114 411.086 341.114L385.667 326.911ZM419.264 345.608C419.264 345.608 445.414 316.029 456.47 303.517C467.531 291 484.672 291.518 494.93 303.681C505.194 315.844 500.838 334.628 486.998 341.986C473.17 349.349 449.073 362.331 449.073 362.331L419.264 345.608ZM513.299 378.213C508.44 385.396 491.567 386.084 491.567 386.084L457.061 366.803C457.061 366.803 477.627 356.025 483.925 352.676C490.228 349.328 501.691 347.762 510.9 353.718C520.127 359.685 518.152 371.025 513.299 378.213Z"
      fill="black"
    />
  </svg>